<svg xmlns="http://www.w3.org/2000/svg" viewBox="0 0 500 500"><g id="freepik--Floor--inject-20"><path d="M486.17,467.05c0,.14-104.4.26-233.16.26s-233.18-.12-233.18-.26,104.38-.26,233.18-.26S486.17,466.9,486.17,467.05Z" style="fill:#263238"></path></g><g id="freepik--Plant--inject-20"><path d="M370,416.6a9.86,9.86,0,0,1,6.16,4.62,17.35,17.35,0,0,1,2.24,7.52c.47,5.09-1.32,10.69-3.54,15.29-4.94-2.79-7.22-9-8.18-12.16-1.52-5.07-1.18-15.14,3.32-15.27" style="fill:#3B847F"></path><path d="M381.41,451.23a8.39,8.39,0,0,1,1-8.36,11.15,11.15,0,0,1,7.53-4.18,4.7,4.7,0,0,1,3.86.86,3.6,3.6,0,0,1,.79,3.55,7.3,7.3,0,0,1-2.1,3.14c-3.16,3-6.77,5.37-11.12,5" style="fill:#3B847F"></path><path d="M379.19,467.58a7.46,7.46,0,0,1-.06-1.05c0-.75,0-1.71-.06-2.87a29.19,29.19,0,0,1,1-9.4,18.08,18.08,0,0,1,4.94-8,12.39,12.39,0,0,1,2.34-1.67,6.77,6.77,0,0,1,.71-.34c.16-.07.25-.11.26-.09a18,18,0,0,0-3.13,2.3,18.42,18.42,0,0,0-4.76,7.95,31.57,31.57,0,0,0-1.12,9.29c0,1.21,0,2.19-.06,2.87A4.62,4.62,0,0,1,379.19,467.58Z" style="fill:#263238"></path><path d="M370.41,424.29a2.57,2.57,0,0,1,.14.44l.35,1.26c.28,1.1.68,2.7,1.16,4.68.95,4,2.19,9.44,3.42,15.53s2.22,11.62,2.88,15.63c.33,2,.58,3.64.74,4.76.07.54.13,1,.18,1.3a2.27,2.27,0,0,1,0,.46,1.69,1.69,0,0,1-.11-.45c-.07-.33-.15-.76-.25-1.28-.21-1.17-.5-2.78-.86-4.74-.73-4-1.75-9.53-3-15.61s-2.43-11.57-3.32-15.54c-.43-2-.79-3.55-1-4.7-.12-.53-.21-.95-.28-1.28A2.18,2.18,0,0,1,370.41,424.29Z" style="fill:#263238"></path><path d="M374.79,455.75a19.62,19.62,0,0,0-13.4-11.91c-1.54-.38-3.46-.44-4.39.84s-.29,3.09.57,4.42a16.77,16.77,0,0,0,17.21,7.08" style="fill:#3B847F"></path><path d="M363,448.41a5.41,5.41,0,0,1,1,.21,8.09,8.09,0,0,1,1.11.33,14.78,14.78,0,0,1,1.45.53,17.88,17.88,0,0,1,1.68.8,18.17,18.17,0,0,1,1.85,1.09,22,22,0,0,1,3.74,3.19,21.06,21.06,0,0,1,2.86,4,16.7,16.7,0,0,1,.91,1.94,15.19,15.19,0,0,1,.63,1.76,15,15,0,0,1,.38,1.5,9.21,9.21,0,0,1,.2,1.14,4.8,4.8,0,0,1,.09,1c-.08,0-.22-1.4-.92-3.55-.19-.53-.38-1.12-.66-1.72a18.37,18.37,0,0,0-.93-1.9,22.1,22.1,0,0,0-2.83-3.91,22.67,22.67,0,0,0-3.66-3.15,19.14,19.14,0,0,0-1.8-1.11,18.21,18.21,0,0,0-1.65-.83C364.4,448.81,363,448.49,363,448.41Z" style="fill:#263238"></path></g><g id="freepik--Character--inject-20"><path d="M275.71,219.84s8.89-4.13,17.4-3.14,19.44,5.78,25.74,8.19,35.73,6.44,35.73,6.44l65.9.76-1.6,14.36s-71.15,2.15-74.67,2-40.73-5.55-44.06-5.55-4.81,3.33-4.81,3.33L290.89,266l-18.23-15.92Z" style="fill:#a36957"></path><polygon points="361.33 250.02 361.33 240.48 405.2 240.48 405.66 248.74 361.33 250.02" style="fill:#455a64"></polygon><rect x="367.72" y="231.29" width="4.58" height="9.55" style="fill:#455a64"></rect><rect x="395.5" y="231.29" width="3.67" height="9.55" style="fill:#455a64"></rect><path d="M275.71,219.84s8.89-4.13,17.4-3.14,19.44,5.78,25.74,8.19,35.73,6.44,35.73,6.44l65.9.76-1.6,14.36s-71.15,2.15-74.67,2-40.73-5.55-44.06-5.55-4.81,3.33-4.81,3.33L290.89,266l-18.23-15.92Z" style="fill:#a36957"></path><polygon points="361.33 250.02 361.33 240.48 405.2 240.48 405.66 248.74 361.33 250.02" style="fill:#455a64"></polygon><rect x="367.72" y="231.29" width="4.58" height="9.55" style="fill:#455a64"></rect><rect x="395.5" y="231.29" width="3.67" height="9.55" style="fill:#455a64"></rect><path d="M251.56,389.55l6.79,44.69s.18,20,3.33,24,8.59,8.41,13.67,8.76,10-1.93,12.27-6.13,3.33-4.38,3.86-8.42.46-72,.46-72Z" style="fill:#a36957"></path><path d="M274.32,466.25a7.2,7.2,0,0,1-2.16-.77,17.3,17.3,0,0,1-7.81-7.69,6.92,6.92,0,0,1-.8-2.15A27.14,27.14,0,0,0,268,461.9,27.57,27.57,0,0,0,274.32,466.25Z" style="fill:#7c3b29"></path><path d="M136.53,295.32l40.32,62.37,3.45-1.16-41.23-62.86a1.5,1.5,0,0,0-2.13-.41h0A1.51,1.51,0,0,0,136.53,295.32Z" style="fill:#263238"></path><path d="M140,300.65l-5.94-.8s2.89,4.87,3.78,5.65a25.1,25.1,0,0,0,2.45,1.77l-1.7-.45a32.6,32.6,0,0,0,3.13,3.68c1.19,1,6.63,3.07,6.63,3.07Z" style="fill:#3B847F"></path><path d="M142.75,299.45l1.71-5.73s3.26,4.63,3.6,5.76a24.31,24.31,0,0,1,.61,3l.29-1.74a32.2,32.2,0,0,1,2.06,4.37c.46,1.5.08,7.29.08,7.29Z" style="fill:#3B847F"></path><path d="M155.12,305.68,195.44,368l3.45-1.16L157.66,304a1.51,1.51,0,0,0-2.13-.41h0A1.52,1.52,0,0,0,155.12,305.68Z" style="fill:#263238"></path><path d="M158.56,311l-5.93-.79s2.89,4.87,3.78,5.65a27.1,27.1,0,0,0,2.45,1.77l-1.7-.45a31.89,31.89,0,0,0,3.13,3.67c1.19,1,6.63,3.07,6.63,3.07Z" style="fill:#3B847F"></path><path d="M161.34,309.81l1.71-5.74s3.26,4.64,3.6,5.77a24.3,24.3,0,0,1,.61,3l.29-1.73a32.5,32.5,0,0,1,2.06,4.36c.46,1.51.08,7.3.08,7.3Z" style="fill:#3B847F"></path><path d="M155.12,285.2l40.32,62.37,3.45-1.16-41.23-62.86a1.5,1.5,0,0,0-2.13-.41h0A1.51,1.51,0,0,0,155.12,285.2Z" style="fill:#263238"></path><path d="M158.56,290.53l-5.93-.8s2.89,4.87,3.78,5.65a25.1,25.1,0,0,0,2.45,1.77l-1.7-.45a32.6,32.6,0,0,0,3.13,3.68c1.19,1,6.63,3.07,6.63,3.07Z" style="fill:#3B847F"></path><path d="M161.34,289.33l1.71-5.73s3.26,4.64,3.6,5.76a24.31,24.31,0,0,1,.61,3l.29-1.74a32.2,32.2,0,0,1,2.06,4.37c.46,1.5.08,7.29.08,7.29Z" style="fill:#3B847F"></path><path d="M154.28,340.15c1.44,1.28,75,117.22,78.18,112.08s7.89-21,6.06-33.09-37.86-92.57-37.86-92.57Z" style="fill:#455a64"></path><path d="M234.8,447l-.15-.19-.4-.58L232.74,444c-1.32-2-3.18-4.87-5.47-8.38l-17.86-27.75c-6.92-10.87-13.32-20.63-18.34-27.42-2.5-3.4-4.59-6.1-6.07-7.94l-1.7-2.12-.44-.56c-.09-.13-.14-.19-.13-.2s.06.05.17.17l.48.52c.41.47,1,1.15,1.78,2.06,1.52,1.8,3.67,4.47,6.2,7.85,5.11,6.75,11.57,16.49,18.49,27.36s13.17,20.68,17.74,27.84l5.32,8.46,1.43,2.32c.14.25.26.45.36.61S234.81,447,234.8,447Z" style="fill:#263238"></path><path d="M233.77,161a6.76,6.76,0,0,0-5.57,9.81,4.67,4.67,0,0,0-1.78,6.79,4,4,0,0,0,0,7.28,4.81,4.81,0,0,0,2.74,8.17,5.3,5.3,0,0,0,3.86,7.32,4.49,4.49,0,0,0,3,5.92,5.13,5.13,0,0,0,.76,2.79,1.77,1.77,0,0,0,2.55.39,2.57,2.57,0,0,0,.46-1.79q.1-15.3.19-30.61" style="fill:#263238"></path><path d="M339.76,209a2.64,2.64,0,0,1,4.83-.64,1.84,1.84,0,1,1,3.29.59,1.43,1.43,0,0,1,2.18,1.55,1,1,0,1,1,1.12,1.53,1.88,1.88,0,0,1,2.6,1.46,1.68,1.68,0,0,1-2.08,2.28,9.89,9.89,0,0,0-1.4-.66,4,4,0,0,0-1.82.42c-.6.18-1.44,0-1.58-.56a1.82,1.82,0,0,1-2.68.83,2,2,0,0,1-3.56-1.75,1.48,1.48,0,0,1-1.19-2.23" style="fill:#263238"></path><path d="M273.94,207.82a13.38,13.38,0,0,0,16.36-2.2,10.34,10.34,0,0,0,17,2.19,9.9,9.9,0,0,0,14.48,4.46c.93-.6,1.88-1.39,3-1.28A5.07,5.07,0,0,1,327,212.1a8.81,8.81,0,0,0,6.22,1.3A4.09,4.09,0,0,0,336.6,211c.55-1.7-.76-3.47-2.27-4.44a9.81,9.81,0,0,0-8.78-.85c-.7-3.51-4.43-5.75-8-5.93s-7,1.21-10.33,2.58a10.36,10.36,0,0,0-14.18-5,4.31,4.31,0,0,0-6.55-3.88,5.35,5.35,0,0,0-9.65-1.67" style="fill:#263238"></path><path d="M283.8,183.72a5.84,5.84,0,0,0,3.39-6.9,7.09,7.09,0,0,0,.85-10.13,5.11,5.11,0,0,0,1.11-5.38,4.92,4.92,0,0,0-4.47-3.07,6.85,6.85,0,0,0-1.42-6.5,6.52,6.52,0,0,0-6.22-2,6.27,6.27,0,0,0-3.05-5.91,6,6,0,0,0-6.52.51,8.45,8.45,0,0,0-12.82.33,8,8,0,0,0-10.81,4.13c-2.55-2.15-6.73-1.07-8.77,1.59s-2.36,6.34-1.89,9.69a5.66,5.66,0,0,0-.24,9.74,9.75,9.75,0,0,0,2.5,13.13,11.11,11.11,0,0,0,6,10.69" style="fill:#263238"></path><path d="M239.28,166.63l-.21-4.16L264,156.93c7.69-1.05,16.27,6.42,17,14.15.81,8.59,1.46,19.1.64,25.55-1.65,13-11.49,14.92-11.49,14.92l-1.05,19.66-28.53,1.24Z" style="fill:#a36957"></path><path d="M278.46,179c-.14.27-1.61-.25-3.31.27s-2.69,1.76-2.94,1.61,0-.5.39-1.06a4.51,4.51,0,0,1,2.27-1.55,4.4,4.4,0,0,1,2.72.05C278.23,178.6,278.52,178.92,278.46,179Z" style="fill:#263238"></path><path d="M262.48,180.47a1.66,1.66,0,0,1-1.54,1.72,1.58,1.58,0,0,1-1.75-1.44,1.66,1.66,0,0,1,1.54-1.72A1.58,1.58,0,0,1,262.48,180.47Z" style="fill:#263238"></path><path d="M262.55,178.75c-.19.22-1.49-.64-3.27-.55s-3,1.05-3.24.85.08-.5.63-.94a4.56,4.56,0,0,1,2.59-.94,4.37,4.37,0,0,1,2.62.7C262.44,178.27,262.65,178.65,262.55,178.75Z" style="fill:#263238"></path><path d="M267.77,190.53a12.23,12.23,0,0,1,2.87-.61c.46-.06.89-.16.95-.48a2.31,2.31,0,0,0-.34-1.33l-1.46-3.43c-2-4.87-3.49-8.88-3.3-9s2,3.8,4,8.68l1.4,3.44a2.69,2.69,0,0,1,.29,1.78,1.16,1.16,0,0,1-.73.69,3,3,0,0,1-.77.13A11.64,11.64,0,0,1,267.77,190.53Z" style="fill:#263238"></path><path d="M270.09,211.59a34.15,34.15,0,0,1-17.87-4.09s4.64,8.9,18,7.31Z" style="fill:#7c3b29"></path><path d="M267.15,194.85a3.2,3.2,0,0,0-2.92-1.1,2.89,2.89,0,0,0-2,1.15,1.84,1.84,0,0,0-.07,2.12,2.15,2.15,0,0,0,2.35.52,6.84,6.84,0,0,0,2.24-1.43,2.29,2.29,0,0,0,.49-.54.6.6,0,0,0,0-.66" style="fill:#7c3b29"></path><path d="M262.56,191.93c.29,0,.36,1.91,2.05,3.23s3.75,1,3.78,1.31c0,.12-.45.39-1.32.44a4.8,4.8,0,0,1-3.15-1,4.21,4.21,0,0,1-1.59-2.71C262.23,192.41,262.43,191.92,262.56,191.93Z" style="fill:#263238"></path><path d="M261.27,169.86c-.16.49-1.95.31-4,.63s-3.76.94-4.05.52c-.13-.21.15-.67.82-1.16a6.76,6.76,0,0,1,3-1.15,6.83,6.83,0,0,1,3.18.27C260.94,169.26,261.33,169.63,261.27,169.86Z" style="fill:#263238"></path><path d="M277.21,173.69c-.23.46-1.52.29-3,.55s-2.62.79-3,.43c-.16-.18-.05-.61.42-1.09a4.33,4.33,0,0,1,4.79-.79C277.06,173.1,277.31,173.47,277.21,173.69Z" style="fill:#263238"></path><path d="M253.08,157.38a6.48,6.48,0,0,0,1.68,2.69,2.19,2.19,0,0,0,2.91,0,2.87,2.87,0,0,0,4.42-.58,3.9,3.9,0,0,0,4.74.18l3.9.61c1.41.22,3.15.3,3.93-.89.18-.28.31-.62.6-.78a1.84,1.84,0,0,1,1,0,3.35,3.35,0,0,0,2.8-1.54A9.83,9.83,0,0,0,280.3,154c.46-1.65.78-3.76-.6-4.77a4.27,4.27,0,0,0-1.9-.62,9.8,9.8,0,0,0-4.07-.06,7.09,7.09,0,0,0-3.82,3.14,1.8,1.8,0,0,0-1.25-2.16,3.55,3.55,0,0,0-2.67.41,7.15,7.15,0,0,0-2.85,2.74,5.82,5.82,0,0,0-5,3.5,4.25,4.25,0,0,0-3.34-.4,1.47,1.47,0,0,0-1,.69.67.67,0,0,0,.4,1" style="fill:#263238"></path><path d="M265.57,157.39a4.26,4.26,0,0,0,6.81,4.57,3.93,3.93,0,0,0,4.56,2.27,6.17,6.17,0,0,0,3.48,5.22,4.84,4.84,0,0,0,.12,3.53,3,3,0,0,0,1.56,1.63,3.4,3.4,0,0,0,2.65-.35,4.76,4.76,0,0,0,2.55-2.79,2.76,2.76,0,0,0-1.42-3.26,10.35,10.35,0,0,0,2.35-3.84,3.32,3.32,0,0,0,.06-2.53,1.46,1.46,0,0,0-2.16-.58,3.79,3.79,0,0,0-4.36-5.28,3.15,3.15,0,0,0-5.35-2" style="fill:#263238"></path><path d="M252.45,157.41a6.66,6.66,0,0,1-3.71,9.19,3.24,3.24,0,0,1-.26,6.28,6.06,6.06,0,0,1-1.1,7.7,3.56,3.56,0,0,1,2,3.23,2.48,2.48,0,0,1-2.73,2.29,4.62,4.62,0,0,1-3,4.62,3.73,3.73,0,0,1-2.87,5.82c.91.63.72,2.13,0,2.93-1.44,1.52-4.18,1.14-5.56-.43a6.43,6.43,0,0,1-1-5.94,2,2,0,0,1-2.48-1.29,4.33,4.33,0,0,1,.3-3.05,16.53,16.53,0,0,0,1.12-2.93,1.47,1.47,0,0,0,0-.93c-.21-.44-.72-.62-1.14-.86-1.6-.91-2.11-3-1.85-4.84a41.36,41.36,0,0,1,1.61-5.26,1.76,1.76,0,0,0,.05-1.13c-.18-.42-.63-.65-1-.91a4,4,0,0,1,.73-7c-1.06-.54-1.17-2.09-.6-3.14a11.47,11.47,0,0,1,2.45-2.57c1.63-1.54,2.84-3.62,4.87-4.57a5.51,5.51,0,0,1,6.2,1.19,8,8,0,0,1,4.43-1.36c1.56.12,3.14,1.35,3.11,2.92" style="fill:#263238"></path><path d="M291.48,191.66s-.19,0-.5-.11a1.77,1.77,0,0,1-1-.94,2.19,2.19,0,0,1,.1-2.07,6.88,6.88,0,0,1,2-2.07l-.32-.4a3.69,3.69,0,0,1-3.88.33,3.35,3.35,0,0,1-1.66-3.92,3.64,3.64,0,0,1,.71-1.4,2,2,0,0,1,1.14-.78c.34,0,.62.41.62.83a1,1,0,0,1-.65.93,3.17,3.17,0,0,1-2.54-.17,4.51,4.51,0,0,1-1.8-1.48,4.62,4.62,0,0,1-.77-3.3c.12-.82.36-1.24.3-1.27a2.74,2.74,0,0,0-.54,1.23,4.68,4.68,0,0,0,.65,3.59,4.86,4.86,0,0,0,2,1.69,3.65,3.65,0,0,0,3,.23,1.9,1.9,0,0,0,.71-.55,1.43,1.43,0,0,0,.29-.91,1.57,1.57,0,0,0-.29-.92,1.13,1.13,0,0,0-.93-.5,1.56,1.56,0,0,0-.93.36,3.58,3.58,0,0,0-.67.62,4,4,0,0,0-.83,1.64,4.24,4.24,0,0,0,.18,2.73,3.69,3.69,0,0,0,1.81,1.88,4.22,4.22,0,0,0,4.47-.47l-.33-.39a7.22,7.22,0,0,0-2.09,2.28,2.51,2.51,0,0,0,0,2.39,1.85,1.85,0,0,0,1.2,1C291.31,191.76,291.49,191.67,291.48,191.66Z" style="fill:#263238"></path><path d="M243.64,161.81a45.87,45.87,0,0,1-3.58-3.78,44.06,44.06,0,0,1,3.78,3.58,45.87,45.87,0,0,1,3.58,3.78A45.87,45.87,0,0,1,243.64,161.81Z" style="fill:#263238"></path><path d="M339.51,207.27c-.28-.61-.78-1.26-1.46-1.22a1.49,1.49,0,0,0-1.18,1.09,8.34,8.34,0,0,0-.06,3.69,4.18,4.18,0,0,1-.86,3.49l-.08-.07a1,1,0,0,0,1,.74,2.07,2.07,0,0,0,1.22-.46,5.27,5.27,0,0,0,2-3.35A6.7,6.7,0,0,0,339.51,207.27Z" style="fill:#3B847F"></path><path d="M297,198.31a42.13,42.13,0,0,1-5.21-.16,84.74,84.74,0,0,1,10.41,0A42,42,0,0,1,297,198.31Z" style="fill:#263238"></path><path d="M289.77,204.68a21.39,21.39,0,0,0-.79-4.45,21.3,21.3,0,0,0-2.17-4,7.13,7.13,0,0,1,2.66,3.8A7.22,7.22,0,0,1,289.77,204.68Z" style="fill:#455a64"></path><path d="M296.7,200.24a18.5,18.5,0,0,0-3.55-.21,19.11,19.11,0,0,0-3.41,1,6.09,6.09,0,0,1,7-.76Z" style="fill:#455a64"></path><path d="M304.92,208.27a18.37,18.37,0,0,0-.39-4.28,17.67,17.67,0,0,0-1.84-3.89,7.65,7.65,0,0,1,2.23,8.17Z" style="fill:#455a64"></path><path d="M310.48,205.19c-.05.14-1.23-.29-2.72-.23s-2.64.55-2.71.41a4.81,4.81,0,0,1,5.43-.18Z" style="fill:#455a64"></path><path d="M324.28,210.51a16,16,0,0,0-2-4.15,15.73,15.73,0,0,0-3.49-3c0-.06.55.06,1.33.48a8.29,8.29,0,0,1,2.57,2.23,8.37,8.37,0,0,1,1.49,3.06A2.87,2.87,0,0,1,324.28,210.51Z" style="fill:#455a64"></path><path d="M323.05,207c0,.16-1.43.21-3,.95a29,29,0,0,0-2.64,1.7,4.45,4.45,0,0,1,2.42-2.17A4.5,4.5,0,0,1,323.05,207Z" style="fill:#455a64"></path><path d="M330.31,207.53c0,.15-.85,0-1.84.13s-1.77.33-1.83.2.69-.63,1.79-.72S330.36,207.4,330.31,207.53Z" style="fill:#455a64"></path><path d="M310.08,194.78s-.09.1-.31.23a7.07,7.07,0,0,1-1,.47,5.15,5.15,0,0,1-4,0,3.94,3.94,0,0,1-2-2,3,3,0,0,1-.2-.78,1.55,1.55,0,0,1,.1-.89.74.74,0,0,1,1-.4,1.29,1.29,0,0,1,.67.73,2.84,2.84,0,0,1-1.34,3.28,5.57,5.57,0,0,1-3.81.51,5,5,0,0,1-1.88-.67,2.53,2.53,0,0,1-1.18-1.6,2.18,2.18,0,0,1,.43-1.89,1.54,1.54,0,0,1,1.84-.37,2.24,2.24,0,0,1,1.13,1.37,2.19,2.19,0,0,1-.16,1.64,4.11,4.11,0,0,1-2.17,1.84,4.51,4.51,0,0,1-4-.17,2.45,2.45,0,0,1-.8-.76c-.13-.22-.18-.34-.16-.35a3.64,3.64,0,0,0,1.06.94,4.45,4.45,0,0,0,3.73,0,3.81,3.81,0,0,0,1.92-1.68,1.79,1.79,0,0,0-.78-2.39,1,1,0,0,0-1.26.25,1.74,1.74,0,0,0-.32,1.46,2.05,2.05,0,0,0,1,1.28,4.67,4.67,0,0,0,1.68.59,5.21,5.21,0,0,0,3.47-.43,2.38,2.38,0,0,0,1.15-2.68.9.9,0,0,0-.4-.47.28.28,0,0,0-.37.17,1.93,1.93,0,0,0,.09,1.31,3.58,3.58,0,0,0,1.75,1.84,5.13,5.13,0,0,0,3.77.11C309.61,195,310.06,194.74,310.08,194.78Z" style="fill:#263238"></path><path d="M302.67,168.54a4.51,4.51,0,0,0-1-.46,4.27,4.27,0,0,0-2.84.4c-.57.25-1.18.58-1.9.86a5.39,5.39,0,0,1-2.44.39,5.71,5.71,0,0,1-2.6-.85,3.29,3.29,0,0,1-1.7-2.44,1.5,1.5,0,0,1,.86-1.39,2.7,2.7,0,0,1,1.52-.17,4.36,4.36,0,0,1,1.37.42,1.64,1.64,0,0,1,1,1.1,1.24,1.24,0,0,1-.67,1.25,2.76,2.76,0,0,1-1.19.36,6.9,6.9,0,0,1-4.92-1.36,2.65,2.65,0,0,1-.78-.8s.31.25.9.63a7.09,7.09,0,0,0,2.73,1.07,6.39,6.39,0,0,0,2,0,2.35,2.35,0,0,0,1-.32.77.77,0,0,0,.43-.78c0-.3-.35-.56-.71-.74a3.69,3.69,0,0,0-1.21-.35,2.17,2.17,0,0,0-1.22.13,1,1,0,0,0-.57.91,2.85,2.85,0,0,0,1.46,2,5.23,5.23,0,0,0,2.36.8c1.64.18,3-.65,4.16-1.11a4.28,4.28,0,0,1,3-.25,2.06,2.06,0,0,1,.73.42C302.63,168.44,302.68,168.53,302.67,168.54Z" style="fill:#263238"></path><path d="M320.48,211a1.85,1.85,0,0,1-.27.76,7.35,7.35,0,0,1-1.27,1.79,7.62,7.62,0,0,1-2.72,1.82,7,7,0,0,1-4,.29,6.53,6.53,0,0,1-3.49-2,6.34,6.34,0,0,1-1.46-2.94,5.7,5.7,0,0,1,0-2.2,1.89,1.89,0,0,1,.27-.76,8.69,8.69,0,0,0,.09,2.88,6.27,6.27,0,0,0,1.46,2.7,6.21,6.21,0,0,0,3.24,1.81,6.84,6.84,0,0,0,3.73-.24,7.72,7.72,0,0,0,2.63-1.63A13.89,13.89,0,0,0,320.48,211Z" style="fill:#263238"></path><path d="M334.32,208c-.07.05-.37-.5-1.07-1.18a6.43,6.43,0,0,0-3.29-1.73,6.52,6.52,0,0,0-3.69.46c-.9.4-1.37.81-1.43.74s.36-.56,1.27-1.07a6,6,0,0,1,7.41,1.34C334.19,207.34,334.38,208,334.32,208Z" style="fill:#263238"></path><path d="M356.29,207.92s-.24.17-.61.51a3.39,3.39,0,0,0-.6.67,2.21,2.21,0,0,0-.44,1c0,.19,0,.38.17.43a.36.36,0,0,0,.43-.14,1.16,1.16,0,0,0-.25-1.3,2,2,0,0,0-1.49-.68,3.27,3.27,0,0,0-1.77.56c-.55.36-1.12.82-1.06,1.3,0,.25.16.43.35.44a.59.59,0,0,0,.55-.3,1.66,1.66,0,0,0,0-1.44,2.1,2.1,0,0,0-.91-1,2.22,2.22,0,0,0-2,0c-.44.22-.63.45-.66.41s.11-.29.57-.58a2.32,2.32,0,0,1,2.21-.15,2.49,2.49,0,0,1,1.14,1.13,2,2,0,0,1,.06,1.87,1.07,1.07,0,0,1-1,.56.92.92,0,0,1-.83-.89,1.4,1.4,0,0,1,.43-1.1,4.34,4.34,0,0,1,.86-.69,3.73,3.73,0,0,1,2.06-.63,2.5,2.5,0,0,1,1.85.88,1.57,1.57,0,0,1,.22,1.88.79.79,0,0,1-1,.23.81.81,0,0,1-.35-.82,2.34,2.34,0,0,1,.58-1.18,3.22,3.22,0,0,1,.7-.66A1.61,1.61,0,0,1,356.29,207.92Z" style="fill:#263238"></path><path d="M227.26,185.08a14.28,14.28,0,0,0,2.65.35,10.46,10.46,0,0,0,5.94-2.11,22.9,22.9,0,0,0,4.47-4.66,18,18,0,0,1,1.7-2.12,11.6,11.6,0,0,1-1.4,2.34,19.71,19.71,0,0,1-4.46,4.86,10.15,10.15,0,0,1-6.26,2.06,6.52,6.52,0,0,1-2-.38C227.47,185.25,227.25,185.11,227.26,185.08Z" style="fill:#455a64"></path><path d="M228.81,195.24a2.94,2.94,0,0,0,2,0,3.43,3.43,0,0,0,1.63-1.34,10.93,10.93,0,0,0,1.16-2.45,40.62,40.62,0,0,0,1.6-6.91,6.13,6.13,0,0,1,0,2.11,20.2,20.2,0,0,1-1.13,5,10.64,10.64,0,0,1-1.26,2.55,3.6,3.6,0,0,1-1.91,1.41,2.56,2.56,0,0,1-1.6,0C228.94,195.43,228.79,195.27,228.81,195.24Z" style="fill:#455a64"></path><path d="M238.78,204a18,18,0,0,1-.05-1.83,11,11,0,0,0-1.11-4.15,10.9,10.9,0,0,0-2.63-3.39,15.17,15.17,0,0,1-1.42-1.14,4,4,0,0,1,1.65.85,9.7,9.7,0,0,1,3.88,7.83A4.15,4.15,0,0,1,238.78,204Z" style="fill:#455a64"></path><path d="M225.67,179.59a2.29,2.29,0,0,1-.46-.31,4.89,4.89,0,0,1-1-1.22,5.57,5.57,0,0,1-.75-2.41,5.47,5.47,0,0,1,.73-3.27c1.22-2.26,5-3.38,7.87-1.42a3.7,3.7,0,0,1,1.54,2.1,1.66,1.66,0,0,1-.37,1.41,2.48,2.48,0,0,1-1.23.73,4.51,4.51,0,0,1-5-2,4,4,0,0,1,1.09-5.21,5.11,5.11,0,0,1,2.54-.86,8.54,8.54,0,0,1,2.54.18c1.6.35,3,.92,4.42,1.17a7,7,0,0,0,3.83-.27,7.66,7.66,0,0,0,4.14-3.68,12.7,12.7,0,0,0,.72-2,5,5,0,0,1-.53,2.07,7.82,7.82,0,0,1-4.2,3.94,8.09,8.09,0,0,1-1.91.46,8.47,8.47,0,0,1-2.12-.12c-1.45-.24-2.9-.8-4.45-1.12a6.12,6.12,0,0,0-4.69.63,3.51,3.51,0,0,0-.93,4.53,4,4,0,0,0,4.39,1.82c.79-.19,1.42-.82,1.25-1.56a3.21,3.21,0,0,0-1.33-1.8,5.43,5.43,0,0,0-4.19-.84,4.6,4.6,0,0,0-3.09,2.07,5.2,5.2,0,0,0-.75,3,5.65,5.65,0,0,0,.63,2.33A6.89,6.89,0,0,0,225.67,179.59Z" style="fill:#455a64"></path><path d="M279.33,155.51a4.09,4.09,0,0,0-.21-1.46,4,4,0,0,0-2.95-2.42,7.93,7.93,0,0,0-5.61,1.45,3.6,3.6,0,0,0-1.16,1.17,1.41,1.41,0,0,0,0,1.48,1.77,1.77,0,0,0,2.86-.15,2.73,2.73,0,0,0-.57-3.24,5.17,5.17,0,0,0-3.11-1.31,8.25,8.25,0,0,0-5.62,1.53,8.67,8.67,0,0,0-2.67,3c-.43.85-.56,1.38-.62,1.37a1.55,1.55,0,0,1,.07-.39,6.24,6.24,0,0,1,.37-1.07,8.72,8.72,0,0,1,8.52-4.92A5.59,5.59,0,0,1,272,152a3.21,3.21,0,0,1,.65,3.87,2.14,2.14,0,0,1-1.84,1.06A2.24,2.24,0,0,1,269,156a1.89,1.89,0,0,1,0-2,4.06,4.06,0,0,1,1.32-1.32,8.21,8.21,0,0,1,6-1.41,4.22,4.22,0,0,1,3.06,2.72,2.77,2.77,0,0,1,.12,1.14C279.39,155.38,279.35,155.51,279.33,155.51Z" style="fill:#455a64"></path><path d="M292.5,146.35s0,.06-.06.17a2.57,2.57,0,0,1-.24.45,5.19,5.19,0,0,1-1.37,1.46,6.15,6.15,0,0,1-2.94,1.14,5,5,0,0,1-4-1.21,2.29,2.29,0,0,1-.61-2.41,1.59,1.59,0,0,1,2.43-.83,2.1,2.1,0,0,1,.89,2.69,3.56,3.56,0,0,1-2.34,2,4.77,4.77,0,0,1-5.58-2.64,24.07,24.07,0,0,0-1.08-3.14,3.94,3.94,0,0,0-2.62-1.78,5.91,5.91,0,0,0-2.68.05,7.34,7.34,0,0,0-2.39,1.15,21,21,0,0,0-3.68,3.61l-.23.27-.17-.3a5.13,5.13,0,0,0-3.82-2.34,6.27,6.27,0,0,0-4.1.91,10.75,10.75,0,0,0-4.27,5.61,29.39,29.39,0,0,0-1.18,4.61c-.1.51-.17.93-.24,1.26a2.05,2.05,0,0,1-.1.43,1.35,1.35,0,0,1,0-.44c0-.34.09-.76.16-1.27a25.16,25.16,0,0,1,1.05-4.69,11,11,0,0,1,4.34-5.86,6.55,6.55,0,0,1,4.37-1,5.54,5.54,0,0,1,4.19,2.54l-.4,0a21.07,21.07,0,0,1,3.77-3.71,7.64,7.64,0,0,1,2.55-1.23,6.4,6.4,0,0,1,2.92-.06,4.44,4.44,0,0,1,2.95,2,23.09,23.09,0,0,1,1.11,3.2,4.29,4.29,0,0,0,5,2.38,3.16,3.16,0,0,0,2.05-1.71,1.73,1.73,0,0,0,.07-1.22,1.75,1.75,0,0,0-.76-.93,1.27,1.27,0,0,0-1.09-.17,1.23,1.23,0,0,0-.74.77,1.88,1.88,0,0,0,.5,2,4.65,4.65,0,0,0,3.68,1.18,6,6,0,0,0,2.86-1A6.52,6.52,0,0,0,292.5,146.35Z" style="fill:#263238"></path><path d="M225.79,179.87a3.41,3.41,0,0,1-.68-.72,10.19,10.19,0,0,1-1.43-2.31,5.85,5.85,0,0,1-.4-4.09,4.92,4.92,0,0,1,1.31-2.15,3.62,3.62,0,0,1,2.53-1L227,170a8.29,8.29,0,0,1-1.5-1.26,3.21,3.21,0,0,1-.78-1.41,2.09,2.09,0,0,1,.27-1.59,3.21,3.21,0,0,1,2.58-1.29,15.81,15.81,0,0,1,2.52.23,7,7,0,0,0,2.1,0,7.29,7.29,0,0,0,2.85-1.12c.61-.4.91-.69.94-.66a3,3,0,0,1-.82.83,7.17,7.17,0,0,1-5.12,1.41,16.29,16.29,0,0,0-2.44-.18A2.72,2.72,0,0,0,225.4,166a1.53,1.53,0,0,0-.2,1.2,2.68,2.68,0,0,0,.66,1.18,7.07,7.07,0,0,0,1.4,1.18l.71.49h-.86a3.11,3.11,0,0,0-2.19.89,4.45,4.45,0,0,0-1.2,1.92,5.74,5.74,0,0,0,.27,3.82,12.26,12.26,0,0,0,1.28,2.33A4.78,4.78,0,0,1,225.79,179.87Z" style="fill:#263238"></path><path d="M260.17,199.56a3.19,3.19,0,0,1-.75.07,13.46,13.46,0,0,1-2.15-.09,5.19,5.19,0,0,1-3.07-1.39,4.11,4.11,0,0,1-1-1.86,2.73,2.73,0,0,1,.47-2.33l.32.31a3.74,3.74,0,0,1-2.49.84,3.51,3.51,0,0,1-2.56-1.19,3.85,3.85,0,0,1-.91-2.85,2.75,2.75,0,0,1,1.92-2.45,1.53,1.53,0,0,1,1.49.33l.18.18-.17.19a2.09,2.09,0,0,1-2.22.41,2.66,2.66,0,0,1-1.59-1.49,5,5,0,0,1,.41-3.9c.53-1.12,1.17-2.07,1.55-3.06a6.09,6.09,0,0,0,.37-2.84,6.84,6.84,0,0,0-1.71-3.79c-.69-.73-1.19-1-1.16-1s.13,0,.37.18a6.07,6.07,0,0,1,.93.72,6.82,6.82,0,0,1,1.93,3.88,6.27,6.27,0,0,1-.34,3c-.38,1-1,2-1.52,3.11a4.55,4.55,0,0,0-.36,3.5,2.08,2.08,0,0,0,1.29,1.2,1.55,1.55,0,0,0,1.67-.28v.37a1,1,0,0,0-1-.2,2.12,2.12,0,0,0-1.09.75,2.45,2.45,0,0,0-.45,1.24,3.34,3.34,0,0,0,.77,2.47,3.22,3.22,0,0,0,4.38.34l.32.31a2.36,2.36,0,0,0-.42,2,3.66,3.66,0,0,0,.89,1.7,5,5,0,0,0,2.84,1.38C259.11,199.56,260.18,199.48,260.17,199.56Z" style="fill:#263238"></path><path d="M291.9,261.51c2.27-8.23-16.19-41.67-16.19-41.67l-44.86,5-3.38,2.44c-4.67,6.83-10.31,19.18-9.95,25.28s5.86,43.33,5.86,43.33,1.42,9.81-12.07,26.92c-2.24,2.83,79.6,4.28,76.77,3.64,0,0-7.29-26.13-3.56-36.7C285.12,288.11,287.7,276.75,291.9,261.51Z" style="fill:#3B847F"></path><path d="M269.91,311.35a11.65,11.65,0,0,1-1.63-.25c-1-.19-2.55-.53-4.4-1a89.19,89.19,0,0,1-27-12.1c-1.58-1.06-2.84-1.95-3.67-2.61a9.7,9.7,0,0,1-1.28-1.05,9.7,9.7,0,0,1,1.39.89c.88.6,2.16,1.45,3.76,2.46A101.21,101.21,0,0,0,264,309.74c1.82.52,3.31.91,4.34,1.16A8.65,8.65,0,0,1,269.91,311.35Z" style="fill:#263238"></path><path d="M283.54,272.08s-.24.26-.76.62a13.09,13.09,0,0,1-2.36,1.26A15.08,15.08,0,0,1,264,270.74a12.94,12.94,0,0,1-1.71-2.06,3.38,3.38,0,0,1-.48-.86c.09-.06.81,1.15,2.44,2.65a15.52,15.52,0,0,0,16.08,3.15C282.37,272.84,283.49,272,283.54,272.08Z" style="fill:#263238"></path><path d="M248.06,269.57a3.53,3.53,0,0,1-.6.79,13,13,0,0,1-2,1.79,15.06,15.06,0,0,1-16.76.84,13.41,13.41,0,0,1-2.15-1.59,3.47,3.47,0,0,1-.67-.72c.07-.08,1.06.92,3,2a15.47,15.47,0,0,0,16.35-.82C247.1,270.6,248,269.5,248.06,269.57Z" style="fill:#263238"></path><g style="opacity:0.30000000000000004"><path d="M226.31,271a10.64,10.64,0,0,0,20.35.55,23.39,23.39,0,0,1-10.17,3.15,14,14,0,0,1-10-3.26"></path></g><g style="opacity:0.30000000000000004"><path d="M233.79,295.81s16.57,7.39,25.48,8.94a14,14,0,0,1,5.07,1.52c1.5.94,2.62,2.78,2.12,4.48C266.46,310.75,240.13,302.19,233.79,295.81Z"></path></g><g style="opacity:0.30000000000000004"><path d="M262.36,268.57a9.86,9.86,0,0,0,17.35,5.62,19.32,19.32,0,0,1-17.5-5.59"></path></g><g style="opacity:0.30000000000000004"><path d="M291.86,257c-2.66-3.43-6.3-5.93-9.34-9s-5.59-7.19-5.07-11.49c.29-2.41,1.5-4.92.53-7.14-1.1-2.5-4.28-3.15-7-3.47-10.5-1.24-29.65-3-40.14-4.27l-4.46,13.76c6.1,2.6,13.72.37,20.14,2,3.24.82,6.12,2.63,9.18,4s6.58,2.22,9.72,1.09c2-.73,4.09-2.29,6.11-1.55a6.42,6.42,0,0,1,2.63,2.44,55.73,55.73,0,0,0,16.68,14.91c.38.23.9.43,1.23.14S292.18,257.37,291.86,257Z"></path></g><path d="M217.92,256.62c.23-.68-.74-2.81-5.29-5.77s-36-16.52-39.16-20.17-7.28-8-4.55-13.2,1.37-5.91,7.51-6.14,13.21-3.05,19.36-1.68S245,218.3,245,218.3l1.13,13.43-18-.68Z" style="fill:#a36957"></path><path d="M230.85,230.92a1.91,1.91,0,0,1-.56.13l-1.61.28a49.37,49.37,0,0,1-6,.37c-2.54,0-5.56-.12-8.9-.34s-7-.46-10.85-.4a47.8,47.8,0,0,0-5.59.43c-.88.12-1.78.29-2.67.36s-1.75.08-2.59.07c-1.68,0-3.26-.1-4.73,0a8,8,0,0,1-2.19,0,8.79,8.79,0,0,1-1.94-.59,26.9,26.9,0,0,1-5.08-3.23l-1.28-1c-.3-.22-.45-.35-.44-.37a3.27,3.27,0,0,1,.5.29c.31.2.76.51,1.34.92a30,30,0,0,0,5.1,3,8.51,8.51,0,0,0,1.86.53,7.84,7.84,0,0,0,2.1,0c1.5-.14,3.1-.08,4.77-.07a24.24,24.24,0,0,0,2.54-.09c.86-.07,1.73-.24,2.64-.36a46.83,46.83,0,0,1,5.65-.45c3.88-.06,7.56.21,10.89.44s6.34.43,8.87.46,4.56-.12,6-.21l1.62-.18A4,4,0,0,1,230.85,230.92Z" style="fill:#7c3b29"></path><path d="M190.17,443.3a20.81,20.81,0,0,1-17.66,10.81s-19.13,21.85-17,26.07l42.57-24.74Z" style="fill:#3B847F"></path><g style="opacity:0.6000000000000001"><path d="M189.29,449.25a2,2,0,0,1,2.35,1.29,1.94,1.94,0,0,1-1.25,2.35,2.13,2.13,0,0,1-2.49-1.38,2,2,0,0,1,1.58-2.29" style="fill:#fff"></path></g><g style="opacity:0.6000000000000001"><path d="M198.06,455.44l-2.12-3.38-40,25s-1.41,1.93-.42,3.14Z" style="fill:#fff"></path></g><path d="M170.56,456.79c.13.21,1.23-.3,2.64-.23s2.46.64,2.6.44-.86-1.21-2.57-1.27S170.41,456.63,170.56,456.79Z" style="fill:#263238"></path><path d="M167.64,460.05c.07.23,1.17.06,2.39.53s2,1.28,2.16,1.15-.35-1.38-1.87-1.94S167.53,459.85,167.64,460.05Z" style="fill:#263238"></path><path d="M168.18,466.61c.21-.06-.1-1.27-1.3-2.1s-2.43-.72-2.41-.49,1,.48,1.94,1.18S168,466.71,168.18,466.61Z" style="fill:#263238"></path><path d="M204.9,331.32c-3.51-1-26.59,3.52-28.3,5.49L196,373.72a4.42,4.42,0,0,0,5,2.23c4.35-1.1,11.88-2.87,16.16-3.23,6.27-.52,13.07-2.34,17.56-1.56s10.35,3.12,12.88,8,2.23,8.85,3.93,19.55L294,389.19s-.47-16.36-.62-22.64c-.14-5.93-4.47-31.33-4.47-31.33Z" style="fill:#263238"></path><path d="M293.5,383.9c0,.14-9.24,2.16-20.71,4.49s-20.8,4.13-20.83,4,9.25-2.16,20.72-4.5S293.48,383.76,293.5,383.9Z" style="fill:#455a64"></path><path d="M280.79,357.1a2.65,2.65,0,0,1-.62,0l-1.79-.09c-1.55-.08-3.79-.23-6.55-.45a130.71,130.71,0,0,1-21.43-3.29,63.45,63.45,0,0,1-19.85-8.61,44.45,44.45,0,0,1-5.16-4.07c-.59-.52-1-1-1.28-1.25a3.29,3.29,0,0,1-.42-.47,3.09,3.09,0,0,1,.49.39c.31.26.74.69,1.34,1.17a49.61,49.61,0,0,0,5.24,3.92,65.91,65.91,0,0,0,19.77,8.42,144.78,144.78,0,0,0,21.33,3.42l6.54.62,1.77.18A2.82,2.82,0,0,1,280.79,357.1Z" style="fill:#455a64"></path><path d="M284.52,348.94a3.93,3.93,0,0,1-.94.35,23.85,23.85,0,0,1-2.67.65,31.53,31.53,0,0,1-17.8-1.94,22.66,22.66,0,0,1-2.46-1.21c-.57-.32-.87-.51-.85-.55s1.3.6,3.45,1.41a34.75,34.75,0,0,0,17.6,1.92C283.12,349.24,284.5,348.85,284.52,348.94Z" style="fill:#455a64"></path><path d="M243.25,354.22a10.53,10.53,0,0,1-.64,2.22c-.46,1.34-1.08,3.21-1.73,5.27s-1.21,4-1.61,5.32a9.94,9.94,0,0,1-.74,2.19,10.11,10.11,0,0,1,.38-2.28c.32-1.39.82-3.3,1.47-5.38s1.34-3.93,1.88-5.25A9.77,9.77,0,0,1,243.25,354.22Z" style="fill:#455a64"></path><path d="M268.14,367.12c0,.08-1.45-.07-3.77-.2A76.81,76.81,0,0,0,246.29,368c-2.29.4-3.7.73-3.72.65a3.29,3.29,0,0,1,1-.34c.63-.19,1.54-.42,2.69-.68a60.91,60.91,0,0,1,9.05-1.24,58.77,58.77,0,0,1,9.13.14c1.16.11,2.1.23,2.74.34A3.81,3.81,0,0,1,268.14,367.12Z" style="fill:#263238"></path><path d="M268.52,376.8a27.83,27.83,0,0,1-3.27-1.37c-2-.88-4.8-2-7.95-3.1s-6.07-1.87-8.19-2.4a31.73,31.73,0,0,1-3.43-.91,3.76,3.76,0,0,1,.95.09c.61.08,1.48.24,2.56.46a71.15,71.15,0,0,1,16.21,5.52c1,.48,1.78.89,2.31,1.2A3.67,3.67,0,0,1,268.52,376.8Z" style="fill:#455a64"></path><path d="M219.15,347.13a4.2,4.2,0,0,1,1,.22,16.88,16.88,0,0,1,2.71,1,19.64,19.64,0,0,1,10.94,14.9,17.91,17.91,0,0,1,.19,2.9,4.1,4.1,0,0,1-.11,1.06c-.1,0,0-1.52-.44-3.9a20.56,20.56,0,0,0-10.75-14.64C220.59,347.6,219.12,347.23,219.15,347.13Z" style="fill:#455a64"></path><path d="M212.15,347.43a4.9,4.9,0,0,1,1,.25,9.85,9.85,0,0,1,1.2.4,14.39,14.39,0,0,1,1.54.63,25.78,25.78,0,0,1,3.81,2.13,29,29,0,0,1,4.11,3.42,29.33,29.33,0,0,1,3.36,4.16,25.13,25.13,0,0,1,2.07,3.84,16.34,16.34,0,0,1,.61,1.55,10.68,10.68,0,0,1,.38,1.21,4.65,4.65,0,0,1,.23,1.05c-.1,0-.51-1.45-1.56-3.66a29.05,29.05,0,0,0-2.13-3.73,32,32,0,0,0-3.33-4.06,32.4,32.4,0,0,0-4-3.39,30.46,30.46,0,0,0-3.69-2.19C213.59,348,212.12,347.53,212.15,347.43Z" style="fill:#455a64"></path><path d="M186.63,334.15a3.41,3.41,0,0,1,.52.12c.33.09.83.22,1.45.43a46.77,46.77,0,0,1,5.18,2.07,38.41,38.41,0,0,1,14.35,11.35,30.17,30.17,0,0,1,4.63,9,26.59,26.59,0,0,1,1.28,8.19,22.36,22.36,0,0,1-.66,5.54c-.14.65-.34,1.13-.43,1.46a2,2,0,0,1-.2.49,30.88,30.88,0,0,0,.93-7.49,28,28,0,0,0-1.37-8,30.9,30.9,0,0,0-4.59-8.86,39.66,39.66,0,0,0-14.1-11.33,53.72,53.72,0,0,0-5.09-2.2A19.33,19.33,0,0,1,186.63,334.15Z" style="fill:#455a64"></path><path d="M412,246.25a18.27,18.27,0,0,0,8.68,1.5,50.34,50.34,0,0,0,8.77-1.46,8.27,8.27,0,0,0,3.73-1.56c1.2-1.06,1.67-2.7,2.56-4s2-2.19,2.81-3.41,1.28-2.9.49-4.15a4.38,4.38,0,0,0-2.11-1.54,16,16,0,0,0-14,.85c-4.35,2.49-7.24,6.85-10,11.06" style="fill:#a36957"></path><path d="M424,182.71c-.44.16-1.78-5.09-6.89-11.81a53.83,53.83,0,0,0-10.45-10.31,51.11,51.11,0,0,0-7.34-4.6,84.93,84.93,0,0,0-8.6-3.74c-6-2.32-12-4.33-17.1-7.23s-9.19-6.2-11.81-9.82a15.59,15.59,0,0,1-3.45-9.81c0-.62,0-1.17.14-1.64s.22-.85.31-1.16c.18-.62.32-.93.41-.9s.12.36.11,1q0,.46-.06,1.14c0,.45.07,1,.11,1.54a15.69,15.69,0,0,0,3.88,8.71c2.59,3.2,6.65,6.23,11.51,8.85s10.75,4.55,16.88,6.9a80.74,80.74,0,0,1,8.86,3.91,51.15,51.15,0,0,1,7.61,5,50.15,50.15,0,0,1,10.48,11.15,37.6,37.6,0,0,1,4.65,9.18c.17.58.33,1.09.47,1.55s.18.84.24,1.15C424.06,182.35,424.08,182.68,424,182.71Z" style="fill:#263238"></path><path d="M433.6,262.05c.35.14-1.67,5.7-5.89,14.21-2.11,4.25-4.67,9.28-7.84,14.74a48.24,48.24,0,0,1-5.92,8.13,44,44,0,0,1-8.25,7,51.83,51.83,0,0,1-9.61,4.89c-3.21,1.29-6.32,2.35-9.24,3.43a69.45,69.45,0,0,0-8,3.43,32.57,32.57,0,0,0-6.2,4.19,25.45,25.45,0,0,0-6.47,8.66l-.72,1.58c-.17.47-.33.87-.46,1.19-.27.64-.45,1-.54,1s-.07-.39,0-1.09c.06-.35.13-.78.24-1.29l.51-1.72a24.17,24.17,0,0,1,2.05-4.49,25.41,25.41,0,0,1,4.11-5.14,31.88,31.88,0,0,1,6.42-4.73,64.7,64.7,0,0,1,8.2-3.78c5.85-2.34,12.44-4.37,18.27-8.25a43,43,0,0,0,7.81-6.58,49.22,49.22,0,0,0,5.75-7.63c3.22-5.31,5.95-10.25,8.26-14.37C430.7,267.15,433.28,261.92,433.6,262.05Z" style="fill:#263238"></path><polygon points="364.07 332.81 257.12 223.9 358.63 122.48 359.33 123.18 258.52 223.91 364.79 332.11 364.07 332.81" style="fill:#455a64"></polygon><path d="M427,226H273a1.76,1.76,0,0,1-1.76-1.77h0a1.76,1.76,0,0,1,1.76-1.76H427a1.76,1.76,0,0,1,1.77,1.76h0A1.77,1.77,0,0,1,427,226Z" style="fill:#455a64"></path><path d="M431.4,220.62c.11.12,15.07,3.11,15.07,3.11l-14,4.07Z" style="fill:#455a64"></path><path d="M295.12,222.5s-5.2-4.55-10-5.09a36.37,36.37,0,0,0-8.4,0l1.6,3.32-4.66-3.56H263v5.33Z" style="fill:#263238"></path><path d="M295.6,224.73s-5.2,4.56-10,5.09a36.37,36.37,0,0,1-8.4,0l1.6-3.32-4.67,3.56H263.47v-5.33Z" style="fill:#263238"></path><path d="M421.13,174.53l-7.92,11S421.13,200,421.13,216s-.48,36.69-1.44,40.28-6.48,16.55-6.48,16.55l10.32,10.31,10.07-21.1s-5-2.16-4.8-7.44,2.4-17,8.63-23.73v-4.32s-6.95-10.79-7.67-18.46-1.92-10.31,1.68-13.67c0,0-8.39-15.34-10.31-19.9" style="fill:#263238"></path><path d="M272.57,211.51c-3.17,1.57-7.48,3-10.27,3l8.95,1.91A3.83,3.83,0,0,0,272.57,211.51Z" style="fill:#a36957"></path><path d="M272.57,211.51a2.48,2.48,0,0,1,.53,1.45,4,4,0,0,1-.25,1.79,3.74,3.74,0,0,1-1.49,1.86l-.07,0-.08,0-7-1.45-1.93-.42-2.27-.49,2.32,0a16.93,16.93,0,0,0,4.13-.65,33.39,33.39,0,0,0,3.24-1c.9-.32,1.62-.61,2.11-.81a3.37,3.37,0,0,1,.79-.27,4,4,0,0,1-.71.44c-.47.25-1.17.59-2.07,1a29.59,29.59,0,0,1-3.24,1.14,16.73,16.73,0,0,1-4.25.73l.05-.51,1.94.41,7,1.54-.16,0a3.82,3.82,0,0,0,1.53-4.35A1.51,1.51,0,0,1,272.57,211.51Z" style="fill:#7c3b29"></path><path d="M245,218.3,261.2,214s10.55,2.57,11.05,3.07,1,3.19,0,3.53a10.84,10.84,0,0,1-3.35,0s3.68.5,3.93,2.68-1.58,4.36-1.58,4.36,1.67,1.78.67,3.07-3.85.89-3.85.89,8.88,1.33,8.88,2,0,2-.84,2.06a75.63,75.63,0,0,1-11-.75c-1.4-.28-19-3.19-19-3.19Z" style="fill:#a36957"></path><path d="M271.68,221.58a19.79,19.79,0,0,1-3.3-.89,32.32,32.32,0,0,1-3.3-.85,7,7,0,0,1,3.44.35A8.37,8.37,0,0,1,271.68,221.58Z" style="fill:#7c3b29"></path><path d="M271.25,227.61a28.9,28.9,0,0,1-4.12-1c-2.26-.58-4.14-.75-4.14-.89a9.63,9.63,0,0,1,4.26.38A12.59,12.59,0,0,1,271.25,227.61Z" style="fill:#7c3b29"></path><path d="M268.91,231.7a18.36,18.36,0,0,1-4-.25c-2.23-.24-3.93-1-3.86-1.15s1.74.4,3.92.64S268.94,231.53,268.91,231.7Z" style="fill:#7c3b29"></path><path d="M230.85,215.9a1,1,0,0,1,.25,0l.72.1,2.8.42L245,218.13h-.08l16.24-4.39h.11c2.78.68,5.71,1.4,8.73,2.25a15.06,15.06,0,0,1,2.31.79,1.06,1.06,0,0,1,.44.58,4.35,4.35,0,0,1,.2.61,5.22,5.22,0,0,1,.16,1.25,2.11,2.11,0,0,1-.37,1.33.79.79,0,0,1-.35.24,1.62,1.62,0,0,1-.34.1,4.81,4.81,0,0,1-.64.07,14.21,14.21,0,0,1-2.53-.14l.07-.51a8.76,8.76,0,0,1,2.29.7,3.22,3.22,0,0,1,1.78,1.82,4.42,4.42,0,0,1-.25,2.68,8.4,8.4,0,0,1-1.31,2.27v-.34a4.27,4.27,0,0,1,1,1.77,2,2,0,0,1,0,1.07,1.78,1.78,0,0,1-.61.88,3.74,3.74,0,0,1-1.87.68,8,8,0,0,1-1.89,0l.07-.5c1.49.23,2.95.48,4.39.75a26.3,26.3,0,0,1,4.2,1l.27.15.15.15a.56.56,0,0,1,.07.18v.61a3,3,0,0,1-.23,1.09,1,1,0,0,1-.42.48,1.33,1.33,0,0,1-.6.14c-.35,0-.68,0-1,0-1.34,0-2.64-.09-3.91-.17a55.47,55.47,0,0,1-7.11-.84l-6.06-1-8.64-1.53-2.31-.43-.6-.12a.63.63,0,0,1-.2-.06.84.84,0,0,1,.21,0l.6.08,2.33.35,8.67,1.38,6.07,1a55,55,0,0,0,7.07.78c1.26.07,2.56.14,3.88.15.33,0,.67,0,1,0a.59.59,0,0,0,.63-.36,2.59,2.59,0,0,0,.17-.91v-.56c-.13,0,.19,0,.14,0a.11.11,0,0,0-.09,0c-.08,0,0,0-.07,0l-.19-.1a27.62,27.62,0,0,0-4.1-1c-1.42-.26-2.88-.5-4.36-.73l.07-.5a4.93,4.93,0,0,0,3.36-.56,1.31,1.31,0,0,0,.45-1.43,3.75,3.75,0,0,0-.86-1.54l-.15-.17.14-.17a8.09,8.09,0,0,0,1.21-2.12,4,4,0,0,0,.25-2.35,2.79,2.79,0,0,0-1.52-1.5,8,8,0,0,0-2.13-.66l.07-.51a15.38,15.38,0,0,0,2.43.14c.36,0,.85-.07,1-.24a1.66,1.66,0,0,0,.25-1,4.87,4.87,0,0,0-.15-1.13c-.09-.34-.22-.8-.42-.89a17.24,17.24,0,0,0-2.17-.72c-3-.86-5.93-1.59-8.7-2.28h.12L245,218.47h-.07l-10.34-1.85-2.78-.52-.71-.14C230.93,215.93,230.84,215.91,230.85,215.9Z" style="fill:#7c3b29"></path><path d="M430,247.19c0,.06-.46.28-1.19,0a9.1,9.1,0,0,1-2.35-1.51l-1.19-.94a4,4,0,0,1-.92-.91,1.17,1.17,0,0,1-.14-.91c.07-.22.18-.29.2-.27a1.39,1.39,0,0,0,.25,1,4.28,4.28,0,0,0,.9.74l1.21.91a15.19,15.19,0,0,0,2.18,1.57A6.67,6.67,0,0,0,430,247.19Z" style="fill:#7c3b29"></path><path d="M439.43,233.29,435.7,233l.32,2.11-4.36.56a41.13,41.13,0,0,0-5.12-.56,2.84,2.84,0,0,0-2.53,1.24c-.88,1,1.91,2.08,1.91,2.08-3.9-1.23-3.67.38-3.67.38-1.39,2.29,2.53,3,2.14,3.6-1.17,1.88,4.59,4.74,4.59,4.74s3.68.07,4.59-.46.73-2.51.7-3a5.57,5.57,0,0,0,1.29-.47c1.76-.77,1.53-3.36,1.53-3.36s2.15-.77,2.38-1.62A36.07,36.07,0,0,0,439.43,233.29Z" style="fill:#a36957"></path><path d="M437.23,239.85a5.06,5.06,0,0,1-1.13.07c-.73,0-1.79,0-3.1,0a25.16,25.16,0,0,1-4.57-.55,16.35,16.35,0,0,1-2.62-.81,5.59,5.59,0,0,1-1.33-.68,2.15,2.15,0,0,1-.56-.6,1.15,1.15,0,0,1-.15-.91,1.77,1.77,0,0,1,.7-.89,2.28,2.28,0,0,1,.95-.43,7.77,7.77,0,0,1,1.89-.21,26.4,26.4,0,0,1,3.41.34,17.61,17.61,0,0,0,2.83.24,7.29,7.29,0,0,0,2.14-.37l-.08.14a11.74,11.74,0,0,1,0-2.13,12.71,12.71,0,0,1,.27,2.11v.1l-.09,0a7,7,0,0,1-2.22.49,16.61,16.61,0,0,1-2.91-.16,26.79,26.79,0,0,0-3.35-.29c-1.11,0-2.61.15-3,1.17-.11.33.16.7.51,1a5.74,5.74,0,0,0,1.21.62,17.73,17.73,0,0,0,2.54.81,27.78,27.78,0,0,0,4.48.65A39.9,39.9,0,0,1,437.23,239.85Z" style="fill:#7c3b29"></path><path d="M434.27,243.73a9.5,9.5,0,0,1-2.65.27,18,18,0,0,1-6.39-.93,6,6,0,0,1-3-2.08,2.72,2.72,0,0,1-.51-1.57,1.52,1.52,0,0,1,.68-1.3,1.85,1.85,0,0,1,1.15-.28,3.43,3.43,0,0,1,.85.15c.45.13.68.25.67.28s-.27,0-.71-.09a2.46,2.46,0,0,0-1.75.24c-.63.41-.59,1.5,0,2.3a5.77,5.77,0,0,0,2.75,1.87,20.77,20.77,0,0,0,6.21,1A20.23,20.23,0,0,1,434.27,243.73Z" style="fill:#7c3b29"></path><path d="M413.07,232.47s7.42-5.74,9.11-5.74,8.56-.15,8.87,0,9.26,2.37,9.49,2.37,2.88.54,2.89,2.13c0,.87-.65,2.22-3.15,2.15-1.3,0-7.55-1.19-8.24-1.37a5.14,5.14,0,0,0-3.8.45,5,5,0,0,0-2.07,1.21c-1.51,1.84-4.88,5.76-7.48,7.32-3.44,2.06-5.62.51-5.62.51Z" style="fill:#a36957"></path><path d="M416.89,241a31.07,31.07,0,0,0,3.51-1.8,15.11,15.11,0,0,0,3.21-2.77c1.06-1.16,2-2.81,3.62-3.9a5.85,5.85,0,0,1,2.66-1,9.16,9.16,0,0,1,2.6.2l4.22.9c1.2.24,2.18.4,2.85.5a4.51,4.51,0,0,1,1.06.2,4.34,4.34,0,0,1-1.08,0,28.68,28.68,0,0,1-2.9-.34c-1.21-.19-2.65-.49-4.24-.79a8.75,8.75,0,0,0-2.46-.16,5.45,5.45,0,0,0-2.42.89c-1.53,1-2.43,2.58-3.55,3.79a14.63,14.63,0,0,1-3.37,2.76,13.64,13.64,0,0,1-2.67,1.24A4,4,0,0,1,416.89,241Z" style="fill:#7c3b29"></path><path d="M267.45,226.66c-.11-.35.46-.83.86-1.67a3.31,3.31,0,0,0,.36-1.42,3.1,3.1,0,0,0-.44-1.58,2.88,2.88,0,0,0-.28-.38l-.73-.85.62-.8a3.36,3.36,0,0,0,.7-2.67c-.13-.7-.64-1.17-.51-1.5.06-.15.27-.24.64-.21a2.25,2.25,0,0,1,1.36.82,4.26,4.26,0,0,1-.1,5.08l-.11-1.65a4.42,4.42,0,0,1,.62.79,4.53,4.53,0,0,1,.6,3.27,4,4,0,0,1-1.33,2.3,3,3,0,0,1-1.55.72C267.75,226.94,267.51,226.83,267.45,226.66Z" style="fill:#263238"></path><path d="M178.46,336.33s-31.13,9.18-35.23,11.66-11.12,10.93-10.34,23.39,7.35,23.07,11.45,29.31S173.22,454,173.22,454c7.7-.28,14.56-3.34,17.06-10.07,0,0-9.39-30.4-10.56-38.79s-1.17-12.88-4.29-17.56a90.67,90.67,0,0,0-8.38-10.13c.42.45,32.27-1,32.27-1h0c4.13-1,8.71-6.63,9.09-7.36,1.53-2.95-2.09-12.45-6.32-18.82S190.57,336,178.46,336.33Z" style="fill:#a36957"></path><path d="M158.79,368a12.85,12.85,0,0,1-.09,2.92,39.67,39.67,0,0,1-1.34,6.92,39,39,0,0,1-2.53,6.57,11.94,11.94,0,0,1-1.47,2.53,22.2,22.2,0,0,1,1.14-2.68,54.82,54.82,0,0,0,2.36-6.57,53.61,53.61,0,0,0,1.47-6.82A24.06,24.06,0,0,1,158.79,368Z" style="fill:#7c3b29"></path><path d="M211.31,322.86h0l-7.74,8.32s20.93,2.62,28.9,2.68c10.64.08,57.79,1.26,57.79,1.26l1.12-3.36-3.3-10.82Z" style="fill:#455a64"></path><path d="M246.72,322.51s14.36,3.16,26.68,7.35c10.68,3.63,11.76,5.63,11.76,5.63l2.92,5.37-6.75,2.68c-1.27,0-36.48-10-33.32-9.41Z" style="fill:#455a64"></path><path d="M248,334.13a5.64,5.64,0,0,1-.9.05l-2.65.06-4.19.05-5.33-.17h-.22v-.22c0-3.43,0-7.4,0-11.62V322h.37l12.95,0h.23v.22c0,3.62-.08,6.61-.12,8.67,0,1,0,1.77-.06,2.38a3.64,3.64,0,0,1-.05.81s0-.33,0-.9,0-1.44-.05-2.43c0-2.13-.07-5.05-.12-8.53l.22.22-12.95,0H235l.26-.26c0,4.22,0,8.19,0,11.62l-.22-.23,5.32.25,4.07.08,2.67.08A6.84,6.84,0,0,1,248,334.13Z" style="fill:#263238"></path><path d="M285.48,335.34a8.25,8.25,0,0,1-1.47-.62c-.92-.44-2.27-1.06-3.94-1.81-3.34-1.49-8-3.42-13.3-5.2s-10.19-3-13.75-3.88c-1.78-.41-3.23-.73-4.23-.94a10.39,10.39,0,0,1-1.55-.38,8.62,8.62,0,0,1,1.58.18c1,.15,2.48.42,4.28.78a122.47,122.47,0,0,1,13.83,3.75,119.73,119.73,0,0,1,13.29,5.36c1.66.79,3,1.46,3.88,2A11.21,11.21,0,0,1,285.48,335.34Z" style="fill:#263238"></path><path d="M251.68,327c-.05.15-1.92-.51-4.32-.56s-4.3.51-4.35.36a10.08,10.08,0,0,1,8.67.2Z" style="fill:#263238"></path><path d="M251.76,331.11c-.07,0-.3-.33-.94-.44a18.07,18.07,0,0,0-2.62,0c-2.07,0-3.7.36-3.75.23a7,7,0,0,1,3.74-.76,9.79,9.79,0,0,1,2.73.21C251.66,330.55,251.84,331.1,251.76,331.11Z" style="fill:#263238"></path><path d="M259.76,330.85c0-.06.32,0,.42.39a.78.78,0,0,1-.15.69.8.8,0,0,1-.87.2.79.79,0,0,1-.55-.7.75.75,0,0,1,.3-.63c.33-.25.61-.1.58,0s-.19.1-.32.3-.14.48.16.58.47-.1.49-.35S259.72,330.92,259.76,330.85Z" style="fill:#263238"></path><path d="M266.72,332.86c0,.07-.14.16-.2.38s.05.48.35.45.35-.29.24-.51-.27-.26-.27-.33.27-.18.57.1a.77.77,0,0,1,.2.68.78.78,0,0,1-.69.58.77.77,0,0,1-.79-.43.75.75,0,0,1,.06-.7C266.43,332.74,266.73,332.79,266.72,332.86Z" style="fill:#263238"></path><path d="M274,335.05c0-.06.22-.25.59-.05a.75.75,0,0,1-.12,1.36.78.78,0,0,1-.89-.18.79.79,0,0,1-.16-.69c.12-.41.44-.45.45-.39s-.1.2-.08.44.19.46.48.34.26-.39.1-.58S274,335.12,274,335.05Z" style="fill:#263238"></path></g></svg>